<svg xmlns="http://www.w3.org/2000/svg" version="1.1" xmlns:xlink="http://www.w3.org/1999/xlink" xmlns:svgjs="http://svgjs.dev/svgjs" width="100%" height="100%" viewBox="0 0 1000 600"><rect width="1000" height="600" x="0" y="0" fill="#f7f7f7"/><g><circle r="166.66666666666666" cx="222.22225443522134" cy="244.44447157118097" fill="#006838" transform="matrix(2.25000013732911,0,0,2.25000013732911,0,-250.00002975464122)"/><path d="M139.09430934001125 319.4444190728298Q119.2292884155189 319.4444190728298 106.55323370446911 309.08643918162477L106.55323370446911 309.08643918162477L109.72224738223156 304.01014875335716Q120.49102534277617 310.34817610888206 133.40182180773428 310.34817610888206L133.40182180773428 310.34817610888206Q157.05205351399843 310.34817610888206 157.05205351399843 287.10874247195744L157.05205351399843 287.10874247195744L157.05205351399843 176.1932637502719Q148.190552303959 174.93152682301462 140.35604626726854 172.4080529685001L140.35604626726854 172.4080529685001L140.35604626726854 169.44443832540742L193.3783399313124 169.44443832540742L193.3783399313124 172.20265393383033Q184.31143968660317 175.37166761159273 176.711675403821 176.1932637502719L176.711675403821 176.1932637502719L176.711675403821 287.10874247195744Q176.711675403821 302.74841182609987 166.4417236703316 311.1110868090841Q156.20111465608073 319.4444190728298 139.09430934001125 319.4444190728298L139.09430934001125 319.4444190728298ZM322.4863045808934 310.99371593212993Q333.255082541438 312.9009926826351 337.8912321811275 314.8082694331403L337.8912321811275 314.8082694331403L337.8912321811275 317.33174328765483L307.05203426142083 317.33174328765483L272.3982828407037 253.95146973240594L247.25157245327395 253.95146973240594L247.25157245327395 310.99371593212993Q255.496876559304 312.2554528593872 264.387720488582 315.0136684678101L264.387720488582 315.0136684678101L264.387720488582 317.33174328765483L210.5144879666204 317.33174328765483L210.5144879666204 314.8082694331403Q214.29969874839222 313.5171897866445 219.17059014199006 312.460851894057Q224.01213881634934 311.4045140014695 227.62129328268992 310.99371593212993L227.62129328268992 310.99371593212993L227.62129328268992 175.9878647156021Q218.73044935341196 174.72612778834485 210.92528603596 171.967912179922L210.92528603596 171.967912179922L210.92528603596 169.44443832540742L280.438187912064 169.44443832540742Q304.5285604069063 169.44443832540742 315.1799674904968 180.41861532062183Q325.8607172933257 191.42213503507475 325.8607172933257 211.28715595956714L325.8607172933257 211.28715595956714Q325.8607172933257 229.010158379646 316.6764461716623 240.0136780940989Q307.4628323307604 250.9878550893133 289.7398299106815 253.30592990915807L289.7398299106815 253.30592990915807L322.4863045808934 310.99371593212993ZM247.25157245327395 177.24960164285937L247.25157245327395 246.3517054496238L274.9510994144568 246.3517054496238Q291.2069658726086 246.3517054496238 298.80673015539077 237.05006345100628Q306.4064944381729 227.7484214523887 306.4064944381729 211.0524142056588L306.4064944381729 211.0524142056588Q306.4064944381729 194.38574967816743 298.80673015539077 185.81767566051337Q291.2069658726086 177.24960164285937 274.9510994144568 177.24960164285937L274.9510994144568 177.24960164285937L247.25157245327395 177.24960164285937Z " fill="#f7f7f7" transform="matrix(2.25000013732911,0,0,2.25000013732911,0,-250.00002975464122)"/><path d="MNaN 244.44443766276106 " fill="#006838" transform="matrix(2.25000013732911,0,0,2.25000013732911,0,-250.00002975464122)"/></g></svg>